<svg width="512" height="512" viewBox="0 0 512 512" fill="none" xmlns="http://www.w3.org/2000/svg">
    <rect width="512" height="512" fill="#2E2E2E"/>
    <path d="M147.2 169.6C147.2 156.373 156.373 147.2 169.6 147.2H342.4C355.627 147.2 364.8 156.373 364.8 169.6V294.4C364.8 307.627 355.627 316.8 342.4 316.8H214.4L147.2 384V169.6Z" stroke="#00BFB2" stroke-width="12" stroke-linejoin="round"/>
    <path d="M220 256C220 242.773 229.173 232 242.4 232H304C317.227 232 326.4 242.773 326.4 256V256C326.4 269.227 317.227 280 304 280H242.4C229.173 280 220 269.227 220 256V256Z" fill="#00BFB2"/>
    <circle cx="326" cy="210" r="20" fill="#00BFB2"/>
</svg>